<svg xmlns="http://www.w3.org/2000/svg" version="1.1" xmlns:xlink="http://www.w3.org/1999/xlink" xmlns:svgjs="http://svgjs.com/svgjs" width="1440" height="560" preserveAspectRatio="none" viewBox="0 0 1440 560"><g mask="url(&quot;#SvgjsMask1000&quot;)" fill="none"><rect width="1440" height="560" x="0" y="0" fill="#0e2a47"></rect><path d="M 0,155 C 57.6,146.6 172.8,114.6 288,113 C 403.2,111.4 460.8,146.8 576,147 C 691.2,147.2 748.8,101 864,114 C 979.2,127 1036.8,229.8 1152,212 C 1267.2,194.2 1382.4,62.4 1440,25L1440 560L0 560z" fill="#184a7e"></path><path d="M 0,418 C 96,441 288,555 480,533 C 672,511 768,305.4 960,308 C 1152,310.6 1344,498.4 1440,546L1440 560L0 560z" fill="#2264ab"></path></g><defs><mask id="SvgjsMask1000"><rect width="1440" height="560" fill="#ffffff"></rect></mask></defs></svg>